<svg width="512" height="512" viewBox="0 0 512 512" fill="none" xmlns="http://www.w3.org/2000/svg">
<path opacity="0.2" d="M79 392V283.249C79 261.347 86.058 240.946 98 224.284V185.464C52.856 195.113 19 235.224 19 283.248V392C19 447.229 63.771 492 119 492L171.058 491.687C119.543 487.638 79 444.555 79 392Z" fill="#8E70FF"/>
<path d="M392 512H120C53.832 512 0 458.168 0 392V272C0 245.292 10.181 220.224 28.667 201.413C42.559 187.277 59.971 177.874 79 174.001V120C79 53.832 132.832 0 199 0H392C458.168 0 512 53.832 512 120V392C512 458.168 458.168 512 392 512ZM79 215.409C56.044 223.569 40 245.528 40 272V392C40 436.112 75.888 472 120 472H392C436.112 472 472 436.112 472 392V120C472 75.888 436.112 40 392 40H199C154.888 40 119 75.888 119 120V396C119 407.046 110.046 416 99 416C87.954 416 79 407.046 79 396V215.409ZM432 129C432 117.954 423.046 109 412 109H179C167.954 109 159 117.954 159 129C159 140.046 167.954 149 179 149H412C423.046 149 432 140.046 432 129ZM433 316C433 304.954 424.046 296 413 296H335C323.954 296 315 304.954 315 316C315 327.046 323.954 336 335 336H413C424.046 336 433 327.046 433 316ZM276 316C276 304.954 267.046 296 256 296H179C167.954 296 159 304.954 159 316C159 327.046 167.954 336 179 336H256C267.046 336 276 327.046 276 316ZM276 396C276 384.954 267.046 376 256 376H179C167.954 376 159 384.954 159 396C159 407.046 167.954 416 179 416H256C267.046 416 276 407.046 276 396ZM392 396C392 384.954 383.046 376 372 376H335C323.954 376 315 384.954 315 396C315 407.046 323.954 416 335 416H372C383.046 416 392 407.046 392 396Z" fill="#5528FF"/>
<path d="M413 256H268C256.954 256 248 247.046 248 236C248 224.954 256.954 216 268 216H413C424.046 216 433 224.954 433 236C433 247.046 424.046 256 413 256ZM159 234C159 247.807 170.193 259 184 259C197.807 259 209 247.807 209 234C209 220.193 197.807 209 184 209C170.193 209 159 220.193 159 234Z" fill="#1DE9B6"/>
</svg>
