<svg width="512" height="512" viewBox="0 0 512 512" fill="none" xmlns="http://www.w3.org/2000/svg">
<path opacity="0.2" d="M149.616 492C149.397 485.54 149.163 479.085 149.231 472.636C124.534 454.442 108.5 425.121 108.5 392.041V119.958C108.5 85.561 125.834 55.223 152.222 37.239C152.245 37.052 152.265 36.865 152.289 36.678L147.5 20C92.271 20 47.5 64.771 47.5 120V392C47.5 447.229 92.271 492 147.5 492H149.616Z" fill="#8E70FF"/>
<path d="M363.5 512H248.5C237.454 512 228.5 503.046 228.5 492C228.5 480.954 237.454 472 248.5 472H363.5C407.612 472 443.5 436.112 443.5 392V120C443.5 94.602 431.835 71.271 411.495 55.99C402.664 49.355 400.884 36.818 407.518 27.987C414.152 19.156 426.69 17.374 435.522 24.01C466.013 46.917 483.5 81.904 483.5 120V392C483.5 458.168 429.668 512 363.5 512ZM188.5 492V20C188.5 8.954 179.546 0 168.5 0H148.5C82.332 0 28.5 53.832 28.5 120V392C28.5 458.168 82.332 512 148.5 512H168.5C179.546 512 188.5 503.046 188.5 492ZM148.5 472C104.388 472 68.5 436.112 68.5 392V120C68.5 75.888 104.388 40 148.5 40V472Z" fill="#5528FF"/>
<path d="M334.33 231.976C325.834 231.976 317.466 228.806 311.01 222.775L298.5 211.223L285.99 222.775C276.056 232.055 261.593 234.565 249.106 229.165C236.588 223.751 228.5 211.441 228.5 197.803V20C228.5 8.954 237.454 0 248.5 0H348.5C359.546 0 368.5 8.954 368.5 20V197.803C368.5 211.441 360.411 223.751 347.894 229.165C343.522 231.055 338.907 231.976 334.33 231.976ZM298.5 164C303.369 164 308.237 165.769 312.068 169.307L328.5 184.48V40H268.5V184.48L284.932 169.306C288.763 165.769 293.631 164 298.5 164V164Z" fill="#1DE9B6"/>
</svg>
