<svg width="512" height="512" viewBox="0 0 512 512" fill="none" xmlns="http://www.w3.org/2000/svg">
<g opacity="0.8">
<path opacity="0.2" d="M199.239 135C199.239 83.877 232.601 40.554 278.739 25.593C267.557 21.968 255.629 20 243.239 20C179.726 20 128.239 71.487 128.239 135C128.239 198.513 179.726 250 243.239 250C255.629 250 267.557 248.032 278.739 244.407C232.601 229.446 199.239 186.123 199.239 135Z" fill="#8E70FF"/>
</g>
<path d="M433 512C421.954 512 413 503.046 413 492C413 413.701 349.299 350 271 350H241C162.701 350 99 413.701 99 492C99 503.046 90.046 512 79 512C67.954 512 59 503.046 59 492C59 391.645 140.645 310 241 310H271C371.355 310 453 391.645 453 492C453 503.046 444.046 512 433 512Z" fill="#1DE9B6"/>
<path d="M254 270C179.561 270 119 209.439 119 135C119 60.561 179.561 0 254 0C328.439 0 389 60.561 389 135C389 209.439 328.439 270 254 270ZM254 40C201.617 40 159 82.617 159 135C159 187.383 201.617 230 254 230C306.383 230 349 187.383 349 135C349 82.617 306.383 40 254 40Z" fill="#5528FF"/>
</svg>
