<svg width="405" height="333" viewBox="0 0 405 333" fill="none" xmlns="http://www.w3.org/2000/svg">
<g clip-path="url(#clip0)">
<path opacity="0.2" d="M217.789 172.42C215.925 173.42 213.682 173.42 211.818 172.42L139.038 134.897C137.306 133.968 137.313 131.487 139.051 130.568L210.445 92.3747C212.292 91.3977 214.505 91.3977 216.352 92.3747L259.254 106.447L223.12 87.3337C209.911 80.3466 194.089 80.3466 180.88 87.3337L124.694 117.053C112.27 123.625 112.218 141.367 124.604 148.01L180.649 178.072C193.981 185.223 210.019 185.223 223.351 178.072L243.579 167.222L217.789 172.42Z" fill="#8E70FF"/>
<path d="M202 190.797C193.474 190.797 184.95 188.713 177.178 184.544L121.133 154.482C113.006 150.124 107.975 141.694 108.001 132.484C108.028 123.274 113.108 114.874 121.26 110.562L177.446 80.8425C192.821 72.7102 211.179 72.7102 226.554 80.8425L282.739 110.562C290.891 114.874 295.972 123.274 295.998 132.484C296.025 141.694 290.993 150.124 282.867 154.482L226.822 184.544C219.051 188.712 210.524 190.796 202 190.797ZM202 89.432C195.925 89.432 189.851 90.8967 184.313 93.8257L128.128 123.545C124.733 125.341 122.7 128.698 122.689 132.527C122.678 136.355 124.692 139.724 128.076 141.54L184.121 171.601C195.317 177.606 208.684 177.606 219.88 171.601L275.925 141.54C279.309 139.724 281.323 136.355 281.312 132.527C281.301 128.698 279.267 125.341 275.873 123.545L219.686 93.8257C214.149 90.8967 208.075 89.432 202 89.432V89.432ZM180.88 87.3339H180.884H180.88ZM226.822 251.004L292.126 215.977C295.7 214.06 297.044 209.608 295.127 206.035C293.21 202.46 288.758 201.117 285.184 203.034L219.879 238.061C208.684 244.066 195.317 244.066 184.092 238.046L118.788 203.386C115.204 201.485 110.759 202.848 108.858 206.43C106.957 210.013 108.32 214.458 111.902 216.359L177.178 251.004C184.95 255.173 193.474 257.257 202 257.257C210.524 257.257 219.051 255.172 226.822 251.004V251.004Z" fill="#5528FF"/>
<path d="M202 224.211C193.474 224.211 184.95 222.126 177.178 217.958L111.902 183.313C108.32 181.411 106.957 176.966 108.858 173.384C110.759 169.802 115.204 168.438 118.788 170.34L184.092 205C195.316 211.02 208.684 211.02 219.879 205.015L285.184 169.988C288.758 168.071 293.21 169.414 295.127 172.988C297.044 176.562 295.701 181.014 292.126 182.931L226.822 217.958C219.051 222.126 210.524 224.211 202 224.211V224.211Z" fill="#1DE9B6"/>
<path d="M216.117 120.33C208.467 115.913 196.07 115.913 188.421 120.33C180.772 124.746 180.772 131.904 188.421 136.32C196.07 140.736 208.467 140.736 216.117 136.32C223.766 131.904 223.766 124.746 216.117 120.33Z" fill="#5528FF"/>
<path d="M231.284 111.573L238.273 123.528L232.339 126.954L225.349 115L204.643 110.964L210.578 107.538L231.284 111.573Z" fill="#5528FF"/>
<path d="M173.254 145.077L166.264 133.122L172.199 129.695L179.189 141.65L199.895 145.686L193.96 149.112L173.254 145.077Z" fill="#5528FF"/>
</g>
<defs>
<clipPath id="clip0">
<rect width="188" height="188" fill="white" transform="translate(108 72)"/>
</clipPath>
</defs>
</svg>
